<svg version="1.2" xmlns="http://www.w3.org/2000/svg" viewBox="0 0 512 512" width="512" height="512">
	<title>comment-svg</title>
	<style>
		.s0 { fill: #673ab7 } 
		.s1 { fill: #ffffff } 
	</style>
	<g>
		<path id="Preencher com Cor Sólida 1" fill-rule="evenodd" class="s0" d="m255 0.3c11.3-0.1 24.3 0.2 29 0.7 4.7 0.4 13.7 1.7 20 3 6.3 1.2 16.9 3.7 23.5 5.7 6.6 1.9 16.7 5.3 22.5 7.5 5.8 2.3 16.1 7 23 10.5 6.9 3.6 17 9.4 22.5 13 5.5 3.6 13.8 9.5 18.5 13.2 4.7 3.6 13.6 11.5 19.9 17.6 6.2 6 14.9 15.3 19.3 20.5 4.4 5.2 11 14 14.7 19.5 3.8 5.5 9.8 15.4 13.5 22 3.6 6.6 8.8 17.4 11.5 24 2.7 6.6 6.5 17.2 8.4 23.5 1.9 6.3 4.7 17.3 6.1 24.5 1.4 7.2 3 17.4 3.6 22.8 0.5 5.3 1 17.8 1 27.7 0 9.9-0.5 22.4-1 27.8-0.6 5.3-2.2 15.6-3.6 22.7-1.4 7.1-4.1 18.1-6 24.3-1.9 6.1-4.7 14.5-6.3 18.4-1.6 4-4.8 11.4-7 16.3-2.3 4.9-6.3 12.6-8.8 17-2.6 4.4-7.2 11.8-10.3 16.5-3.2 4.7-9.3 13-13.8 18.5-4.4 5.5-13.3 15.2-19.9 21.6-6.5 6.3-15.4 14.4-19.8 17.9-4.4 3.4-11.8 8.9-16.5 12-4.7 3.2-13 8.2-18.5 11.3-5.5 3.1-14.6 7.6-20.2 10.1-5.7 2.6-16.3 6.6-23.5 9-7.3 2.5-18.7 5.6-25.3 7-6.6 1.4-17.6 3.2-24.5 4.1-7.2 0.8-20.3 1.5-31 1.5-10.7 0-23.8-0.7-31-1.5-6.9-0.9-17.9-2.7-24.5-4.1-6.6-1.4-18-4.5-25.2-7-7.3-2.4-17.9-6.4-23.5-9-5.7-2.5-14.8-7-20.3-10.1-5.5-3.1-14-8.3-19-11.6-5-3.3-12.4-8.8-16.5-12.1-4.1-3.3-12.8-11.2-19.3-17.6-6.6-6.3-15.5-16-20-21.5-4.4-5.5-11.3-14.9-15.3-21-4-6.1-9.7-15.7-12.7-21.5-3.1-5.8-7.6-15.4-10.1-21.5-2.4-6.1-6-16.2-7.9-22.5-1.9-6.3-4.7-17.4-6.1-24.5-1.4-7.1-3-17.4-3.6-22.8-0.5-5.3-1-17.8-1-27.7 0-9.9 0.5-22.4 1-27.8 0.6-5.3 2.2-15.5 3.6-22.7 1.4-7.2 4.2-18.2 6.1-24.5 1.9-6.3 5.4-16.2 7.7-22 2.4-5.8 5.9-13.7 7.9-17.5 1.9-3.8 5.6-10.6 8.2-15 2.6-4.4 7.1-11.4 9.8-15.5 2.8-4.1 8.6-11.8 12.8-17 4.2-5.2 13-14.7 19.5-21 6.6-6.4 15.3-14.3 19.4-17.6 4.1-3.4 12.7-9.5 19-13.7 6.3-4.2 17.1-10.4 24-14 6.9-3.5 17.2-8.2 23-10.5 5.8-2.2 15.9-5.6 22.5-7.5 6.6-2 17.2-4.5 23.5-5.8 6.3-1.2 14.9-2.5 19-2.9 4.1-0.4 16.7-0.7 28-0.7zm-124 120.8c-3 0.4-7.9 2.1-10.9 3.6-3 1.5-7.6 5.3-10.3 8.3-2.7 3-5.9 8-7.1 11l-2.2 5.5v209c3.4 8.5 6.6 13.5 9.3 16.5 2.7 3 7.1 6.7 9.8 8.2 2.7 1.4 7.6 3.1 10.9 3.7 3.6 0.7 20.7 1.1 43.5 1.1 35.7 0 37.7 0.1 40.8 2 2 1.3 7.1 7.8 14.1 18.3 5.9 8.9 11.7 17 12.7 17.9 1.1 0.9 3.6 2.4 5.7 3.2 2 0.9 6 1.6 8.7 1.6 2.8 0 6.7-0.7 8.8-1.6 2-0.8 4.5-2.3 5.6-3.2 1-0.9 6.7-8.9 12.6-17.7 5.8-8.8 12-17 13.6-18.3l2.9-2.3c57.4 0.1 77-0.4 80.8-0.9 3.7-0.6 8.4-1.8 10.5-2.9 2-1 6.1-4.1 9-6.7 3-2.8 6.4-7.1 7.8-9.9 1.3-2.7 2.8-7.9 3.4-11.5 0.6-4.1 1-41.4 1-102 0-61.9-0.4-97.8-1.1-102-0.5-3.6-2.2-8.9-3.7-11.9-1.5-2.9-4.9-7.3-7.7-9.8-2.7-2.4-6.8-5.3-9-6.4-2.2-1-6.9-2.4-10.5-2.9-4-0.6-52.8-0.9-125-0.9-65.2 0.1-121 0.5-124 1zm38 108.6c2.5 0.3 6.2 1.4 8.3 2.4 2 1.1 4.9 3.1 6.3 4.7 1.4 1.5 3.5 4.5 4.6 6.7 1.3 2.6 2.1 6.1 2.2 10 0.1 4.6-0.5 7.3-2.6 11.5-1.6 3.4-4.1 6.6-6.5 8.3-2.1 1.5-5.6 3.4-7.8 4.2-2.2 0.8-5.6 1.4-7.5 1.5-1.9 0-5.5-0.7-8-1.5-2.5-0.8-6.3-3-8.4-4.7-2.2-1.8-5-5.5-6.3-8.3-1.3-2.9-2.3-6.9-2.3-9.5 0-2.5 0.5-6.2 1-8.2 0.6-2.1 2.5-5.7 4.3-8 1.7-2.3 5-5 7.2-6.2 2.2-1.1 5.6-2.3 7.5-2.7 1.9-0.4 5.5-0.5 8-0.2zm90 0c2.5 0.3 6.6 1.6 9.3 2.9 2.8 1.4 5.9 4.1 7.7 6.7 1.7 2.3 3.6 6.5 4.2 9.2 0.8 3.7 0.8 6.4 0 10.5-0.7 3.3-2.5 7.3-4.5 10-2 2.8-5.2 5.4-8.3 6.9-2.7 1.4-6.9 2.7-9.4 2.9-2.8 0.3-6.6-0.2-10-1.4-3.6-1.1-6.9-3.2-9.6-5.8-2.4-2.4-4.7-6.1-5.7-9.1-1-2.7-1.7-6.4-1.7-8 0-1.6 0.6-5.2 1.5-8 0.8-2.7 2.7-6.6 4.3-8.5 1.6-1.9 4.6-4.4 6.8-5.4 2.1-1.1 5.5-2.3 7.4-2.7 1.9-0.4 5.5-0.5 8-0.2zm90 0c2.5 0.3 6.5 1.5 9 2.7 2.5 1.2 6 4.1 7.8 6.4 1.7 2.3 3.7 6.1 4.3 8.5 0.6 2.3 0.9 6.5 0.6 9.2-0.2 2.8-1.3 6.8-2.4 9-1.1 2.2-3.8 5.5-5.9 7.3-2.1 1.8-6.1 3.9-8.9 4.8-3.1 1.1-6.7 1.5-9.5 1.2-2.5-0.3-6.1-1.3-8-2.1-1.9-0.9-5.2-3.2-7.2-5.2-2.1-1.9-4.5-5.2-5.4-7.2-1-2.2-1.7-6.5-1.7-10.3 0-4.9 0.6-7.6 2.3-11 1.3-2.5 3.5-5.6 4.9-6.9 1.4-1.2 4-3 5.6-3.9 1.6-0.8 4.6-1.9 6.5-2.3 1.9-0.4 5.5-0.5 8-0.2z"/>
		<path id="Preencher com Cor Sólida 3" fill-rule="evenodd" class="s1" d="m257 119.2c68.7-0.1 120.4 0.3 124.5 0.8 3.9 0.5 8.8 1.9 11 3.1 2.2 1.1 5.8 3.6 8 5.3 2.2 1.8 5.4 5.9 7.1 9.2 1.8 3.2 3.9 8.2 4.3 11.1 0.4 3.8 0.8 207.3-1.5 213.5l-1.5 4.8c-1.9 3.8-4.7 8.7-7.9 11.8-3.4 3.3-7.6 6.1-11 7.5-5.3 2.1-7.3 2.2-90.2 3.2l-3.2 3.6c-1.7 2-8 10.7-14.1 19.4-9.1 13.2-11.7 16.1-15 17.6q-4 1.9-11.2 1.9c-4.7 0-8.8-0.6-11.5-1.8-3.4-1.4-5.4-3.6-11.1-11.7-3.9-5.5-10-13.9-13.6-18.8-3.6-4.8-7.3-9-8.1-9.4-0.8-0.4-20.2-0.9-43-1.3-39.7-0.5-41.7-0.7-47-2.8-3-1.2-7.8-4.3-10.6-6.9-3.3-3-10-8.4-12-24.4l-0.9-32.3 0.5-158.1c-1-24.4 7.8-31 10.2-33.5 2.4-2.5 6.6-5.8 9.3-7.4 3.9-2.3 6.8-3.1 13-3.6 4.4-0.4 60.9-0.8 125.5-0.8zm-98 113.1c-2 0.7-5.2 2.4-7.3 3.9-2 1.6-4.8 5-6.2 7.8-1.5 3-2.5 6.7-2.5 9.2 0 2.4 0.6 6 1.3 8.2 0.6 2.1 2.5 5.4 4.2 7.4 1.7 2 5.3 4.6 8 5.9 2.9 1.3 6.9 2.3 9.5 2.3 2.7 0 6.3-0.9 8.9-2.3 2.5-1.2 6.1-4 8-6.3 2.1-2.3 4.1-6.1 4.9-9 0.8-3.1 1-6.5 0.5-9.4-0.4-2.5-2-6.2-3.5-8.3-1.5-2-4.3-4.8-6-6.1-1.8-1.3-4.9-2.8-6.8-3.5-1.9-0.6-4.8-1.1-6.5-1.1-1.7 0.1-4.6 0.6-6.5 1.3zm88.5 0.6c-2.2 1-5.5 3.3-7.4 5.2-1.9 1.9-4.2 5.3-5.3 7.6-1 2.4-1.8 6.2-1.8 8.5 0 2.4 0.9 6.1 1.9 8.3 1 2.2 3.3 5.5 5.2 7.4 1.9 1.9 5.2 4.2 7.4 5.2 2.2 1 6 1.9 8.5 1.9 2.5 0 6.3-0.9 8.5-1.9 2.2-1 5.5-3.3 7.4-5.2 1.8-1.9 4-4.6 4.7-6.2 0.8-1.5 1.7-4.6 2-7 0.4-2.7 0.1-6-0.9-9.2-0.9-2.8-3.2-6.7-5.4-9-2.4-2.6-5.7-4.7-8.8-5.8-2.7-1-6.6-1.7-8.5-1.7-1.9 0-5.3 0.9-7.5 1.9zm93.5-1.2c-0.8 0.3-3.3 1.4-5.6 2.4-2.6 1.3-5.4 3.9-7.7 7.2-2.3 3.3-3.9 6.9-4.3 9.7-0.3 2.5-0.1 6.3 0.4 8.5 0.6 2.2 3 6.2 5.4 8.9 2.4 2.7 6.1 5.8 8.3 6.7 2.2 1 6 1.9 8.5 1.9 2.7 0 6.5-1 9.5-2.4 2.7-1.3 6-3.4 7.2-4.7 1.2-1.3 3.1-4.4 4.2-6.9 1.1-2.5 2.1-6.6 2.1-9.3 0-3.1-0.9-6.4-2.5-9.7-1.4-2.8-4-6.1-5.8-7.4-1.7-1.4-5.2-3.2-7.7-4.1-2.5-0.8-5.9-1.5-7.5-1.4-1.6 0-3.7 0.3-4.5 0.6z"/>
	</g>
</svg>