<svg version="1.1" xmlns="http://www.w3.org/2000/svg" xmlns:xlink="http://www.w3.org/1999/xlink" width="439" height="439" viewBox="0,0,256,256"><g fill="none" fill-rule="none" stroke="none" stroke-width="1" stroke-linecap="butt" stroke-linejoin="miter" stroke-miterlimit="10" stroke-dasharray="" stroke-dashoffset="0" font-family="none" font-weight="none" font-size="none" text-anchor="none" style="mix-blend-mode: normal"><g transform="translate(0.04811,-0.01329) scale(0.58314,0.58314)"><g fill="#30d5c8" fill-rule="evenodd"><path d="M194.5,6c-4.4,0.5 -13.6,2 -20.5,3.4c-6.9,1.4 -17.4,4.2 -23.5,6.2c-6.1,2 -15.7,5.8 -21.5,8.3c-5.8,2.6 -15.2,7.6 -21,11.1c-5.8,3.4 -13.7,8.5 -17.5,11.3c-3.8,2.8 -11.2,8.7 -16.4,13.1c-5.2,4.5 -13.3,12.4 -17.9,17.6c-4.7,5.2 -11,13.1 -14.2,17.5c-3.2,4.4 -8.4,12.3 -11.6,17.5c-3.2,5.2 -8,14.2 -10.7,20c-2.7,5.8 -6.8,15.9 -8.9,22.5c-2.2,6.6 -5.1,17.2 -6.4,23.5c-1.3,6.3 -2.8,15.3 -3.4,20c-0.5,4.7 -1,16.7 -1,26.7c0,10.6 0.6,23.2 1.5,30c0.9,6.5 2.6,16.3 4,21.8c1.3,5.5 3.8,14.3 5.5,19.5c1.7,5.2 6.4,16.2 10.5,24.5c4,8.2 10,19.1 13.3,24c3.4,4.9 9.1,12.8 12.9,17.5c3.7,4.7 10.2,12 14.3,16.4c4.1,4.3 12,11.6 17.5,16.1c5.5,4.5 14.3,11 19.5,14.5c5.2,3.4 15.3,9.1 22.5,12.5c7.2,3.5 17.3,7.8 22.5,9.5c8.3,2.8 10,3.1 13.2,2.1c2.1,-0.6 4.7,-2.3 5.8,-3.9c1.9,-2.5 2.1,-4.1 2,-25.5v-22.7c-3.5,0.9 -10.1,1.4 -17,1.7c-9.1,0.4 -14.9,0.1 -21.5,-1.1c-5.5,-1 -11.5,-2.8 -15.5,-4.8c-3.6,-1.8 -8.5,-5.3 -11,-7.8c-2.5,-2.6 -5,-5.7 -5.7,-7.1c-0.6,-1.3 -3.5,-7.3 -6.4,-13.4c-4.3,-9.2 -6.3,-12.1 -11.9,-17.5c-3.6,-3.6 -9,-8.5 -11.9,-11c-3.6,-3.1 -5.2,-5.1 -4.9,-6.5c0.2,-1.3 1.4,-2.2 3.8,-2.6c1.9,-0.4 6,-0.3 9,0.2c3,0.5 8,2.4 11,4.2c3,1.7 7.5,5.2 10,7.7c2.6,2.5 6.7,7.6 9.2,11.5c2.5,3.9 6.8,9.1 9.7,11.7c2.8,2.7 7.5,5.9 10.3,7.3c2.9,1.4 7.8,2.8 10.8,3.1c3,0.4 9.6,0.1 14.5,-0.6c4.9,-0.6 11,-1.9 13.4,-2.8c4.2,-1.6 4.5,-2 5.7,-7.2c0.7,-3 2.1,-7.5 3.2,-10c1.1,-2.5 3.8,-6.9 6.1,-9.8l4.1,-5.2c-12,-1.6 -20.4,-3.2 -26.5,-4.5c-7,-1.6 -14.5,-4.2 -20.5,-7.1c-5.2,-2.5 -12.6,-6.7 -16.4,-9.2c-3.8,-2.6 -9.4,-7.5 -12.5,-10.8c-3.1,-3.4 -7.2,-8.8 -9.1,-12c-1.9,-3.2 -5,-9.9 -6.9,-14.9c-1.8,-4.9 -4.3,-13.3 -5.4,-18.5c-1.7,-7.8 -2.1,-12.9 -2.1,-28.5c0,-17.6 0.2,-19.6 2.6,-27c1.4,-4.4 4,-10.9 5.8,-14.5c1.8,-3.6 5.4,-9.3 8.1,-12.8l4.9,-6.2c-3.3,-13 -4,-18.8 -4,-25.5c0,-6.6 0.7,-12.8 2,-18.3c1.1,-4.5 2.7,-9.9 3.5,-12l1.6,-3.7c9.6,1 15.3,2.3 18.9,3.5c3.6,1.2 10.4,3.9 15.2,6.1c4.9,2.1 12.5,6.2 17,9l8.3,5.1c13.9,-3.2 20.5,-4.6 23.5,-5.2c3,-0.6 13.6,-1.4 23.5,-1.7c10.2,-0.3 22.6,-0.1 28.5,0.5c5.8,0.6 15.9,2.3 22.5,3.7l12,2.6c8.5,-5.6 15.9,-9.6 22,-12.6c6.1,-2.9 14.6,-6.5 19,-8c5.5,-1.8 9.6,-2.5 13,-2.3c4.2,0.2 5.2,0.7 6.2,2.8c0.7,1.4 2.2,6.1 3.4,10.5c1.6,6 2.1,10.9 2.2,20c0,9.7 -0.4,13.3 -2.1,18.5c-2.2,6.5 -2.2,6.5 -0.2,9c1.1,1.4 3.9,5.2 6.2,8.5c2.3,3.3 5.4,8.7 6.9,12c1.6,3.3 3.5,8.7 4.4,12c0.8,3.3 2,10.1 2.6,15c0.5,4.9 0.7,13.1 0.4,18c-0.4,4.9 -1.3,12.8 -2.1,17.5c-0.8,4.7 -2.6,12.3 -4,17c-1.4,4.7 -4.3,11.9 -6.5,16c-2.1,4.1 -6,10 -8.6,13.1c-2.7,3.1 -6.8,7.4 -9.3,9.4c-2.5,2.1 -6.3,4.9 -8.5,6.3c-2.2,1.4 -8.1,4.5 -13,7c-4.9,2.5 -13.3,5.6 -18.5,6.9c-5.2,1.3 -13.8,3.1 -19,3.9c-5.2,0.9 -9.7,1.7 -10,2c-0.3,0.2 0.9,1.9 2.6,3.7c1.7,1.7 3.8,4.4 4.7,6c0.9,1.5 2.7,5.5 3.9,8.9c2.2,6 2.3,8.2 2.8,46.3c0.4,33.3 0.8,40.4 2,42.2c0.8,1.3 2.6,2.8 3.9,3.5c1.3,0.7 4,1.3 6,1.2c2,-0.1 7.7,-1.6 12.6,-3.4c4.9,-1.8 14.4,-6 21,-9.3c6.6,-3.3 16.3,-8.8 21.5,-12.2c5.2,-3.4 12.4,-8.6 16,-11.4c3.6,-2.9 9.4,-8.1 13,-11.5c3.6,-3.5 9.4,-9.4 12.9,-13.2c3.6,-3.8 9.5,-11 13.1,-15.9c3.7,-4.9 9.3,-13.3 12.5,-18.5c3.2,-5.2 8.2,-14.6 11.2,-20.8c2.9,-6.1 7.1,-16.6 9.3,-23.2c2.2,-6.6 5.1,-17.5 6.4,-24.3c1.4,-6.7 3,-17.8 3.7,-24.7c0.7,-7.6 0.9,-18.6 0.6,-28c-0.4,-8.5 -1.3,-20 -2.2,-25.5c-0.8,-5.5 -2.2,-13.2 -3.1,-17c-0.9,-3.8 -2.8,-10.8 -4.1,-15.5c-1.4,-4.7 -4.6,-13.2 -7,-19c-2.4,-5.8 -6.5,-14.3 -9,-19c-2.5,-4.7 -7.3,-12.5 -10.6,-17.5c-3.3,-5 -8.2,-11.9 -11,-15.5c-2.8,-3.6 -9.4,-10.9 -14.7,-16.3c-5.2,-5.5 -12.9,-12.7 -17,-16.1c-4.1,-3.5 -12.7,-9.8 -19,-14c-6.3,-4.3 -17.6,-10.8 -25,-14.5c-7.4,-3.7 -19.4,-8.6 -26.5,-11c-7.1,-2.4 -19.8,-5.7 -28,-7.3c-13.2,-2.6 -17.7,-3 -37,-3.3c-12.1,-0.2 -25.6,0 -30,0.5z" id="Preencher com Cor Sólida 1"></path></g><g fill="#000000" fill-rule="nonzero" font-family="Inter, apple-system, BlinkMacSystemFont, &quot;Helvetica Neue&quot;, &quot;Segoe UI&quot;, &quot;Fira Sans&quot;, Roboto, Oxygen, Ubuntu, &quot;Droid Sans&quot;, Arial, sans-serif" font-weight="400" font-size="16" text-anchor="start"></g><g fill="#000000" fill-rule="nonzero" font-family="Inter, apple-system, BlinkMacSystemFont, &quot;Helvetica Neue&quot;, &quot;Segoe UI&quot;, &quot;Fira Sans&quot;, Roboto, Oxygen, Ubuntu, &quot;Droid Sans&quot;, Arial, sans-serif" font-weight="400" font-size="16" text-anchor="start"></g><g fill="#000000" fill-rule="nonzero" font-family="Inter, apple-system, BlinkMacSystemFont, &quot;Helvetica Neue&quot;, &quot;Segoe UI&quot;, &quot;Fira Sans&quot;, Roboto, Oxygen, Ubuntu, &quot;Droid Sans&quot;, Arial, sans-serif" font-weight="400" font-size="16" text-anchor="start"></g><g fill="#000000" fill-rule="nonzero" font-family="Inter, apple-system, BlinkMacSystemFont, &quot;Helvetica Neue&quot;, &quot;Segoe UI&quot;, &quot;Fira Sans&quot;, Roboto, Oxygen, Ubuntu, &quot;Droid Sans&quot;, Arial, sans-serif" font-weight="400" font-size="16" text-anchor="start"></g><g fill="#000000" fill-rule="nonzero" font-family="Inter, apple-system, BlinkMacSystemFont, &quot;Helvetica Neue&quot;, &quot;Segoe UI&quot;, &quot;Fira Sans&quot;, Roboto, Oxygen, Ubuntu, &quot;Droid Sans&quot;, Arial, sans-serif" font-weight="400" font-size="16" text-anchor="start"></g><g fill="#000000" fill-rule="nonzero" font-family="Inter, apple-system, BlinkMacSystemFont, &quot;Helvetica Neue&quot;, &quot;Segoe UI&quot;, &quot;Fira Sans&quot;, Roboto, Oxygen, Ubuntu, &quot;Droid Sans&quot;, Arial, sans-serif" font-weight="400" font-size="16" text-anchor="start"></g><g fill="#000000" fill-rule="nonzero" font-family="Inter, apple-system, BlinkMacSystemFont, &quot;Helvetica Neue&quot;, &quot;Segoe UI&quot;, &quot;Fira Sans&quot;, Roboto, Oxygen, Ubuntu, &quot;Droid Sans&quot;, Arial, sans-serif" font-weight="400" font-size="16" text-anchor="start"></g><g fill="#000000" fill-rule="nonzero" font-family="Inter, apple-system, BlinkMacSystemFont, &quot;Helvetica Neue&quot;, &quot;Segoe UI&quot;, &quot;Fira Sans&quot;, Roboto, Oxygen, Ubuntu, &quot;Droid Sans&quot;, Arial, sans-serif" font-weight="400" font-size="16" text-anchor="start"></g><g fill="#000000" fill-rule="nonzero" font-family="Inter, apple-system, BlinkMacSystemFont, &quot;Helvetica Neue&quot;, &quot;Segoe UI&quot;, &quot;Fira Sans&quot;, Roboto, Oxygen, Ubuntu, &quot;Droid Sans&quot;, Arial, sans-serif" font-weight="400" font-size="16" text-anchor="start"></g><g fill="#000000" fill-rule="nonzero" font-family="Inter, apple-system, BlinkMacSystemFont, &quot;Helvetica Neue&quot;, &quot;Segoe UI&quot;, &quot;Fira Sans&quot;, Roboto, Oxygen, Ubuntu, &quot;Droid Sans&quot;, Arial, sans-serif" font-weight="400" font-size="16" text-anchor="start"></g><g fill="#000000" fill-rule="nonzero" font-family="Inter, apple-system, BlinkMacSystemFont, &quot;Helvetica Neue&quot;, &quot;Segoe UI&quot;, &quot;Fira Sans&quot;, Roboto, Oxygen, Ubuntu, &quot;Droid Sans&quot;, Arial, sans-serif" font-weight="400" font-size="16" text-anchor="start"></g><g fill="#000000" fill-rule="nonzero" font-family="Inter, apple-system, BlinkMacSystemFont, &quot;Helvetica Neue&quot;, &quot;Segoe UI&quot;, &quot;Fira Sans&quot;, Roboto, Oxygen, Ubuntu, &quot;Droid Sans&quot;, Arial, sans-serif" font-weight="400" font-size="16" text-anchor="start"></g><g fill="#000000" fill-rule="nonzero" font-family="Inter, apple-system, BlinkMacSystemFont, &quot;Helvetica Neue&quot;, &quot;Segoe UI&quot;, &quot;Fira Sans&quot;, Roboto, Oxygen, Ubuntu, &quot;Droid Sans&quot;, Arial, sans-serif" font-weight="400" font-size="16" text-anchor="start"></g><g fill="#000000" fill-rule="nonzero" font-family="Inter, apple-system, BlinkMacSystemFont, &quot;Helvetica Neue&quot;, &quot;Segoe UI&quot;, &quot;Fira Sans&quot;, Roboto, Oxygen, Ubuntu, &quot;Droid Sans&quot;, Arial, sans-serif" font-weight="400" font-size="16" text-anchor="start"></g><g fill="#000000" fill-rule="nonzero" font-family="Inter, apple-system, BlinkMacSystemFont, &quot;Helvetica Neue&quot;, &quot;Segoe UI&quot;, &quot;Fira Sans&quot;, Roboto, Oxygen, Ubuntu, &quot;Droid Sans&quot;, Arial, sans-serif" font-weight="400" font-size="16" text-anchor="start"></g></g></g></svg>