<svg version="1.2" xmlns="http://www.w3.org/2000/svg" viewBox="0 0 512 512" width="512" height="512">
	<title>like-svg</title>
	<style>
		.s0 { fill: #673ab7 } 
		.s1 { fill: #ffffff } 
	</style>
	<path id="Preencher com Cor Sólida 1" fill-rule="evenodd" class="s0" d="m227 1c-4.1 0.4-12.7 1.7-19 2.9-6.3 1.3-16.9 3.8-23.5 5.8-6.6 1.9-16.7 5.3-22.5 7.5-5.8 2.3-16.1 7-23 10.5-6.9 3.6-17.7 9.8-24 14-6.3 4.2-14.9 10.3-19 13.7-4.1 3.3-12.8 11.2-19.4 17.6-6.5 6.3-15.3 15.8-19.5 21-4.2 5.2-10 12.9-12.8 17-2.7 4.1-7.2 11.1-9.8 15.5-2.6 4.4-6.3 11.2-8.2 15-2 3.8-5.5 11.7-7.9 17.5-2.3 5.8-5.8 15.7-7.7 22-1.9 6.3-4.7 17.3-6.1 24.5-1.4 7.2-3 17.4-3.6 22.8-0.5 5.3-1 17.8-1 27.7 0 9.9 0.5 22.4 1 27.8 0.6 5.3 2.2 15.6 3.6 22.7 1.4 7.1 4.2 18.2 6.1 24.5 1.9 6.3 5.5 16.4 7.9 22.5 2.5 6.1 7 15.7 10.1 21.5 3 5.8 8.7 15.4 12.7 21.5 4 6.1 10.9 15.5 15.3 21 4.5 5.5 13.4 15.2 20 21.5 6.5 6.4 15.2 14.3 19.3 17.6 4.1 3.3 11.5 8.8 16.5 12.1 5 3.3 13.5 8.5 19 11.6 5.5 3.1 14.6 7.6 20.3 10.1 5.6 2.6 16.2 6.6 23.4 9 7.3 2.5 18.7 5.6 25.3 7 6.6 1.4 17.6 3.2 24.5 4.1 7.2 0.8 20.3 1.5 31 1.5 10.7 0 23.8-0.7 31-1.5 6.9-0.9 17.9-2.7 24.5-4.1 6.6-1.4 18-4.5 25.3-7 7.2-2.4 17.8-6.4 23.4-9 5.7-2.5 14.8-7 20.3-10.1 5.5-3.1 13.8-8.1 18.5-11.3 4.7-3.1 12.1-8.6 16.5-12 4.4-3.5 13.3-11.6 19.8-17.9 6.6-6.4 15.5-16.1 19.9-21.6 4.5-5.5 10.6-13.8 13.8-18.5 3.1-4.7 7.7-12.1 10.3-16.5 2.5-4.4 6.5-12.1 8.8-17 2.2-4.9 5.4-12.3 7-16.3 1.6-3.9 4.4-12.3 6.3-18.4 1.9-6.2 4.6-17.2 6-24.3 1.4-7.1 3-17.4 3.6-22.8 0.5-5.3 1-17.8 1-27.7 0-9.9-0.5-22.4-1-27.8-0.6-5.3-2.2-15.5-3.6-22.7-1.4-7.2-4.2-18.2-6.1-24.5-1.9-6.3-5.7-16.9-8.4-23.5-2.7-6.6-7.9-17.4-11.5-24-3.7-6.6-9.7-16.5-13.5-22-3.7-5.5-10.3-14.3-14.7-19.5-4.4-5.2-13.1-14.5-19.3-20.5-6.3-6.1-15.2-14-19.9-17.6-4.7-3.7-13-9.6-18.5-13.2-5.5-3.6-15.6-9.4-22.5-13-6.9-3.5-17.2-8.2-23-10.5-5.8-2.2-15.9-5.6-22.5-7.5-6.6-2-17.2-4.5-23.5-5.7-6.3-1.3-15.3-2.6-20-3-4.7-0.5-17.7-0.8-29-0.7-11.3 0-23.9 0.3-28 0.7z"/>
	<path id="Preencher com Cor Sólida 2" fill-rule="evenodd" class="s1" d="m173.5 123c-3.8 0.4-9.7 1.5-13 2.5-3.3 0.9-9.4 3.4-13.5 5.6-4.1 2.1-10.2 6.1-13.5 8.7-3.3 2.7-8.9 8.7-12.5 13.3-3.6 4.6-8.1 11.6-10.1 15.4-2 3.8-4.8 10.8-6.2 15.5-1.5 4.7-3.1 12.3-3.6 17-0.5 4.8-0.5 12.8-0.1 18.5 0.5 5.5 1.6 13.2 2.5 17 0.9 3.8 2.8 10.4 4.2 14.5 1.4 4.1 5 12.4 8 18.5 3.1 6.1 8.1 14.8 11.2 19.5 3 4.7 8.6 12.3 12.4 17 3.7 4.7 11.4 13.2 17 18.9 5.6 5.7 14 13.6 18.7 17.6 4.7 3.9 11.9 9.7 16 12.8 4.1 3 13.3 9.2 20.5 13.7 7.2 4.5 18.6 10.9 25.4 14.3 11.4 5.8 12.8 6.2 19 6.2 5.5-0.1 7.9-0.7 14.6-3.9 4.4-2 14.5-7.6 22.5-12.3 8-4.8 18.6-11.6 23.5-15.1 4.9-3.6 12.4-9.2 16.5-12.6 4.1-3.4 12.4-10.8 18.4-16.6 6-5.8 14.5-15 19-20.5 4.4-5.5 10.8-14.1 14.1-19 3.3-4.9 8.1-13.1 10.6-18 2.6-4.9 5.8-11.9 7.2-15.5 1.4-3.6 3.8-10.8 5.2-16 2.1-7.4 2.8-12.6 3.2-24 0.4-11.4 0.2-16.3-1.1-23-1-4.7-3.3-12.3-5.2-17-1.9-4.7-6-12.3-9.2-17-3.1-4.7-8.6-11.4-12.2-15-3.9-3.8-10.1-8.5-15.1-11.3-4.6-2.6-11.3-5.7-14.9-6.8-3.6-1.1-10.1-2.3-14.5-2.7-4.4-0.5-11.5-0.4-15.7 0-4.3 0.4-11.1 1.9-15 3.3-4 1.4-10.2 4.3-13.8 6.4-3.6 2.1-9.5 6.7-13.1 10.2-3.7 3.5-8.7 9.6-11.1 13.4-2.5 3.8-5.7 9.9-7.1 13.5-1.4 3.6-3.3 9.4-4.1 13-0.9 3.6-1.3 7.2-1.6 10.4-0.1 2-0.6 7.6-1 7.6-0.4 0-0.8-3.7-1.2-8.2-0.4-4.6-1.7-11.5-2.9-15.3-1.2-3.8-3.6-9.9-5.4-13.5-1.8-3.6-5.5-9.4-8.1-12.9-2.7-3.6-7.8-8.8-11.4-11.6-3.6-2.9-8.5-6.4-11-7.8-2.5-1.5-7.8-3.8-11.7-5.2-4-1.4-9.9-2.7-13-3-3.2-0.3-6.9-0.7-8.3-0.9-1.4-0.1-5.7 0.1-9.5 0.4z"/>
</svg>