<svg version="1.2" xmlns="http://www.w3.org/2000/svg" viewBox="0 0 32 32" width="32" height="32">
	<title>logo-nimbus</title>
	<style>
		.s0 { fill: #2aaea3 } 
		.s1 { fill: #30d5c8 } 
	</style>
	<path id="Preencher com Cor Sólida 2" fill-rule="evenodd" class="s0" d="m17 0.8c-0.1 0.1-0.2 0.1-0.3 0.1-0.2 0-0.4 0.2-0.7 0.2-0.2 0.1-0.5 0.3-0.6 0.4-0.2 0.1-0.5 0.3-0.7 0.5-0.2 0.2-0.5 0.5-0.7 0.7-0.2 0.2-0.4 0.5-0.6 0.7-0.1 0.2-0.4 0.6-0.5 0.9-0.2 0.3-0.5 0.8-0.6 1.1-0.1 0.2-0.3 0.4-0.3 0.4 0 0-0.2 0-0.4-0.1-0.2-0.1-0.5-0.2-0.7-0.2-0.1 0-0.5-0.1-0.9-0.1-0.5 0-0.8 0-1 0.1-0.2 0-0.5 0.1-0.7 0.2-0.2 0.1-0.5 0.2-0.6 0.3-0.2 0.1-0.4 0.3-0.5 0.4-0.2 0.2-0.4 0.4-0.6 0.6-0.1 0.2-0.4 0.6-0.5 0.9-0.2 0.3-0.4 0.8-0.6 1.1-0.1 0.4-0.3 0.9-0.3 1.1-0.1 0.3-0.2 0.8-0.3 1 0 0.3-0.1 0.9-0.2 1.2-0.1 0.4-0.1 0.9-0.1 1.1-0.1 0.3-0.1 0.6-0.1 0.8v0.4c-0.4 0.1-0.5 0.2-0.7 0.3-0.1 0.1-0.3 0.2-0.4 0.4-0.1 0.1-0.4 0.3-0.5 0.5-0.2 0.2-0.4 0.5-0.6 0.8-0.2 0.3-0.4 0.7-0.5 0.9-0.1 0.2-0.2 0.6-0.2 0.7-0.1 0.2-0.2 0.6-0.2 0.9-0.1 0.3-0.1 0.7-0.2 1 0 0.3 0 0.8 0 1.3 0 0.5 0 0.9 0.1 1.4 0 0.3 0.1 0.8 0.1 1 0.1 0.3 0.2 0.7 0.2 0.9 0.1 0.2 0.2 0.5 0.3 0.7 0.1 0.3 0.3 0.7 0.5 1.1q0.4 0.6 0.7 1c0.1 0.2 0.4 0.4 0.6 0.6 0.2 0.1 0.5 0.3 0.7 0.4l0.3 0.2h3.7q-0.2-0.6-0.3-1c-0.1-0.3-0.2-0.7-0.2-1 0-0.2-0.1-0.7-0.1-1 0-0.3-0.1-0.8-0.1-1.1 0-0.3 0-0.8 0-1.1 0.1-0.3 0.1-0.8 0.1-1.1 0.1-0.3 0.1-0.6 0.2-0.8 0-0.2 0.1-0.5 0.2-0.7 0-0.2 0.1-0.5 0.2-0.7 0.1-0.2 0.3-0.6 0.4-0.8 0.2-0.2 0.4-0.5 0.5-0.7 0.1-0.1 0.3-0.3 0.5-0.4 0.1-0.1 0.3-0.3 0.4-0.3 0.1-0.1 0.3-0.2 0.5-0.3 0.2-0.1 0.5-0.2 0.7-0.2 0.1-0.1 0.4-0.1 0.4-0.1h0.2c0.1-1.2 0.1-1.8 0.2-2.1 0-0.3 0.1-0.7 0.1-1 0.1-0.3 0.2-0.7 0.2-0.9 0.1-0.2 0.2-0.5 0.3-0.7 0-0.1 0.1-0.4 0.2-0.6 0.1-0.2 0.3-0.5 0.4-0.7 0.1-0.2 0.3-0.4 0.4-0.6 0.1-0.1 0.3-0.3 0.4-0.4 0.2-0.2 0.4-0.4 0.7-0.6 0.2-0.2 0.5-0.4 0.7-0.6 0.2-0.1 0.5-0.2 0.7-0.3 0.3-0.1 0.4-0.1 0.9-0.1 0.4 0 0.6 0 0.8 0.1 0.1 0.1 0.4 0.2 0.6 0.3 0.1 0.1 0.4 0.2 0.5 0.4 0.1 0.1 0.3 0.3 0.4 0.4 0.2 0.1 0.3 0.3 0.4 0.5 0.1 0.1 0.3 0.3 0.3 0.4 0.1 0.1 0.2 0.3 0.3 0.5 0.1 0.1 0.4 0.5 0.5 0.8 0.2 0.3 0.3 0.6 0.3 0.6 0 0 0.2-0.1 0.3-0.2 0.1-0.2 0.4-0.3 0.5-0.4 0.2-0.1 0.4-0.2 0.6-0.3 0.1 0 0.4-0.1 0.6-0.1 0.3 0 0.3 0.1 0.4 0 0 0 0-0.7 0-1.3 0-0.8 0-1.2-0.1-1.6 0-0.3-0.1-0.8-0.1-1-0.1-0.3-0.2-0.7-0.3-1-0.1-0.3-0.2-0.7-0.3-0.9 0-0.2-0.2-0.6-0.3-0.9-0.2-0.2-0.4-0.7-0.5-0.9-0.2-0.3-0.5-0.7-0.7-1-0.2-0.2-0.5-0.6-0.7-0.8-0.2-0.2-0.5-0.4-0.6-0.5-0.2-0.1-0.3-0.2-0.4-0.3 0 0-0.2-0.1-0.4-0.2-0.1-0.1-0.4-0.3-0.6-0.3-0.2-0.1-0.5-0.2-0.7-0.2-0.1-0.1-0.4-0.1-0.6-0.1-0.2 0-0.4 0-0.4 0z"/>
	<path id="Preencher com Cor Sólida 1" fill-rule="evenodd" class="s1" d="m16.4 8.7c-0.2 0-0.5 0.1-0.6 0.2-0.2 0.1-0.4 0.2-0.6 0.3-0.1 0.1-0.4 0.3-0.6 0.5-0.2 0.2-0.5 0.4-0.6 0.6-0.1 0.1-0.3 0.3-0.4 0.4 0 0.1-0.2 0.3-0.3 0.5-0.1 0.2-0.3 0.5-0.4 0.7 0 0.2-0.2 0.4-0.2 0.6-0.1 0.2-0.2 0.5-0.2 0.7-0.1 0.2-0.2 0.6-0.3 0.9 0 0.3-0.1 0.7-0.1 1-0.1 0.3-0.1 0.9-0.2 1.3v0.8q-0.4 0-0.6 0c-0.2 0.1-0.5 0.2-0.7 0.3-0.2 0.1-0.4 0.2-0.5 0.3-0.1 0-0.3 0.2-0.4 0.3-0.2 0.1-0.4 0.3-0.5 0.4-0.1 0.2-0.3 0.5-0.5 0.7-0.1 0.2-0.3 0.6-0.4 0.8-0.1 0.2-0.2 0.5-0.2 0.7-0.1 0.2-0.2 0.5-0.2 0.7 0 0.2-0.1 0.5-0.2 0.8 0 0.3 0 0.8-0.1 1.1 0 0.3 0 0.8 0 1.1 0 0.3 0.1 0.8 0.1 1.1 0 0.3 0.1 0.7 0.1 1 0 0.3 0.1 0.7 0.2 1 0.1 0.2 0.2 0.7 0.3 0.9 0.1 0.2 0.3 0.6 0.4 0.8 0.1 0.2 0.3 0.5 0.4 0.6 0.2 0.2 0.4 0.4 0.5 0.5 0.1 0.1 0.4 0.3 0.6 0.3l0.3 0.2c15.5 0 17.5 0 17.6 0 0.1-0.1 0.3-0.2 0.4-0.2 0.1-0.1 0.3-0.3 0.4-0.4 0.1-0.1 0.3-0.2 0.4-0.4 0-0.1 0.2-0.3 0.3-0.4 0.1-0.2 0.3-0.5 0.4-0.7 0.1-0.2 0.2-0.5 0.3-0.7 0-0.2 0.1-0.5 0.2-0.7 0-0.1 0.1-0.5 0.1-0.7 0-0.2 0.1-0.6 0.1-0.8 0-0.3 0.1-0.7 0.1-0.9 0-0.2 0-0.6-0.1-0.9 0-0.3 0-0.7-0.1-0.9 0-0.2-0.1-0.5-0.1-0.8-0.1-0.2-0.2-0.5-0.3-0.7-0.1-0.1-0.2-0.5-0.3-0.6-0.2-0.2-0.4-0.5-0.5-0.7-0.1-0.1-0.3-0.4-0.5-0.5-0.2-0.1-0.4-0.3-0.6-0.4-0.1-0.1-0.3-0.1-0.3-0.1 0-0.1 0-0.3 0-0.6 0-0.3-0.1-0.8-0.1-1.1-0.1-0.2-0.1-0.7-0.2-0.9 0-0.2-0.1-0.6-0.2-0.9-0.1-0.2-0.2-0.6-0.3-0.8-0.1-0.2-0.3-0.6-0.4-0.8-0.2-0.3-0.5-0.7-0.7-1-0.2-0.2-0.4-0.5-0.5-0.6-0.2-0.2-0.4-0.4-0.5-0.4-0.1-0.1-0.4-0.3-0.6-0.3-0.1-0.1-0.4-0.2-0.6-0.2-0.2-0.1-0.5-0.1-0.7-0.1-0.2 0-0.5 0.1-0.6 0.1-0.2 0.1-0.4 0.2-0.6 0.3-0.1 0.1-0.4 0.2-0.5 0.3-0.1 0.2-0.3 0.2-0.3 0.2 0 0-0.1-0.2-0.3-0.5-0.1-0.3-0.4-0.7-0.5-0.9-0.1-0.1-0.2-0.3-0.3-0.4 0-0.1-0.1-0.3-0.2-0.4-0.2-0.2-0.3-0.4-0.5-0.5-0.1-0.1-0.3-0.3-0.4-0.4-0.1-0.2-0.4-0.3-0.5-0.4-0.2-0.1-0.4-0.2-0.5-0.3-0.2 0-0.4-0.1-0.8-0.1-0.4 0-0.6 0-0.8 0.1z"/>
</svg>