<svg version="1.2" xmlns="http://www.w3.org/2000/svg" viewBox="0 0 1080 878" width="1080" height="878">
	<title>logo-nimbus</title>
	<style>
		.s0 { fill: #30d5c8 } 
		.s1 { fill: #2aaea3 } 
	</style>
	<path id="Preencher com Cor Sólida 3" fill-rule="evenodd" class="s0" d="m142.3 652h82.2l9.5 12c5.2 6.6 9.6 12.7 9.8 13.7 0.1 1-9 41.8-20.2 90.8-11.3 49-20.8 90-21.6 93.5h-27c-25.2 0-27-0.1-26.5-1.7 0.2-1 8.1-35.8 17.5-77.3 9.3-41.5 17-76.1 17-76.8 0-0.9-3.1-1.2-12-1.2-6.6 0-12 0.1-12 0.2 0 0.2-8 35.4-35.6 156.3l-26.7 0.2c-14.7 0.2-26.7 0-26.7-0.5 0-0.4 9.1-42 40.5-184.1zm178.7 0l-1.5 5.7c-0.8 3.2-11.6 50.2-24 104.5-12.4 54.3-22.5 99-22.5 99.3 0 0.3-12.2 0.5-54 0.5l0.5-2.8c0.4-1.5 10.9-48.2 23.5-103.7 12.7-55.6 23.2-101.6 23.4-102.3 0.4-0.9 6.8-1.2 54.6-1.2zm46.5 0.1l55-0.2 20 25 4-3.3c2.2-1.8 9.2-7.4 27.5-21.6l54.5-0.1 10 12.6c5.5 6.9 9.9 13.1 9.8 13.8 0 0.6-9.2 42.2-40.8 183.7h-53.5l0.4-2.3c0.2-1.2 7.9-34.8 17-74.7 9.2-39.9 17.1-74.2 18.6-80h-26.5l-36 157h-26.8c-20.7 0-26.7-0.3-26.7-1.3 0-0.7 7.8-35.5 17.5-77.5 9.6-41.9 17.5-76.7 17.5-77.2 0-0.6-4.7-1-12-1-10.6 0-12.1 0.2-12.5 1.7-0.3 1-8.1 35.3-17.5 76.3-9.4 41-17.3 75.5-18 79h-27c-25.3 0-27-0.1-26.6-1.8 0.3-0.9 9.3-41.5 20-90.2 10.8-48.7 19.9-89.6 20.3-90.9 0.4-1.3 7.2-7.5 16.3-14.7zm316.5-0.1l20 25-5.8 26.6c-3.2 14.7-6 27-6.2 27.3-0.3 0.4-7.6 6.6-32 27.1l20.2 25.5-5.7 25c-3.1 13.8-5.9 25.8-6.1 26.8-0.3 0.9-7.5 7.3-31.9 26.7h-53.8c-50.7 0-53.7-0.1-53.3-1.7 0.3-1 10.9-47.5 23.6-103.3 12.6-55.8 23.2-102.3 23.5-103.2 0.5-1.7 4-1.8 107.5-1.8zm68.9 0c21.2 0 27 0.3 26.6 1.3-0.3 0.6-8.2 35.2-17.5 76.7-9.4 41.5-17.3 76.3-17.6 77.3-0.4 1.6 0.7 1.7 26.1 1.7l17.4-77.2c9.6-42.5 17.6-77.9 17.7-78.5 0.3-1 6.6-1.3 54.4-1.3l-0.6 2.8c-0.3 1.5-9.9 43.1-41.9 182.1l-32.5 25.1-79.5 0.1-10-12.1c-5.5-6.7-10.2-12.9-10.3-13.8-0.2-0.9 8.7-42.2 19.8-91.7 11-49.5 20.2-90.6 20.5-91.2 0.3-1 6.7-1.3 27.4-1.3zm155.6 0h80l22 25.4-12 46.6h-26.8c-14.7 0-26.7-0.3-26.8-0.7 0-0.5 1.2-4.7 5.1-18.3h-25l-1.5 5.3c-0.8 2.8-2.6 9.8-4 15.5-1.4 5.6-2.5 10.4-2.5 10.7 0 0.3 11.8 0.5 52.5 0.4l20.5 26.1-15.5 74.1-32 25-82-0.2-9.8-12.2c-5.3-6.7-9.7-12.9-9.7-13.7 0-0.8 2.1-11.4 9.7-45.5l27.1-0.2c25.4-0.3 27.1-0.2 26.7 1.5-0.2 0.9-0.9 4.4-1.5 7.7-0.7 3.3-1.4 6.8-1.6 7.8-0.4 1.6 0.6 1.7 24.1 1.8l4.2-15.6c2.3-8.5 4.3-15.7 4.3-16 0-0.3-12.3-0.6-54.4-1l-18.6-25.5 7.7-36.9c6.4-30.4 8.1-37.3 9.8-38.5 1.1-0.8 8.3-6.4 16-12.5zm-292.4 64.7c-1.2 6.5-2.2 12.1-2.2 12.5 0 0.5 5.6 0.8 12.3 0.8h12.3c4.4-16.7 5.9-22.3 6.1-23.3 0.3-1.6-0.8-1.7-13-1.7h-13.3zm-14.7 68.5c-0.2 0.7-1.6 5.5-3 10.7-1.4 5.3-2.8 10.3-3 11.3-0.5 1.6 0.6 1.7 12.7 1.5l13.2-0.3c3.5-17 4.5-22.5 4.6-23.2 0-0.9-3-1.3-12-1.3-8.7 0-12.2 0.4-12.5 1.3z"/>
	<path id="Preencher com Cor Sólida 2" fill-rule="evenodd" class="s1" d="m577 16.7c-1.9 0.1-6.9 0.8-11 1.4-4.1 0.6-13.5 2.6-20.8 4.5-7.2 1.9-17.4 5-22.4 7-5.1 2-14.7 6.4-21.3 9.7-6.6 3.4-17.2 9.6-23.5 13.8-6.3 4.2-15.1 10.5-19.5 13.9-4.4 3.5-13.3 11.5-19.9 17.9-6.5 6.4-15.2 15.8-19.2 20.9-4.1 5-7.7 9.2-8.2 9.2-0.4 0-6.6-1.2-13.7-2.6-7.1-1.4-17.5-3.2-23-4-5.6-0.9-19.6-1.7-32-1.9-15.8-0.3-25.1 0-33 1-6.1 0.9-16.6 2.9-23.5 4.6-6.9 1.7-16.6 4.8-21.5 6.9-4.9 2-12.4 5.5-16.5 7.8-4.1 2.2-11.9 7.3-17.4 11.4-5.4 4-14.1 11.8-19.3 17.3-5.6 5.9-12.9 15-17.5 22-4.4 6.6-10.1 16.5-12.8 22-2.7 5.5-6.5 14.5-8.5 20-2 5.5-5.1 15.8-7 23-1.9 7.2-4.1 17.1-4.9 22-0.8 4.9-1.8 11.9-2.1 15.5l-0.6 6.5c-11.2 3.6-17.6 5.8-21.4 7.2-3.8 1.5-10.6 4.5-15 6.8-4.4 2.2-12.1 6.7-17 9.9-5.5 3.6-13.1 10-19.6 16.5-5.8 5.8-12.8 14-15.6 18.1-2.8 4.1-6.5 10.4-8.3 14-1.8 3.6-4.7 11-6.6 16.5-1.8 5.5-4 14.5-4.9 20-1 6.2-1.6 15.9-1.6 25.5 0 10.9 0.6 18.9 2 27 1.1 6.3 3.6 16 5.5 21.5 1.9 5.5 4.9 12.9 6.7 16.5 1.7 3.6 5.6 10.3 8.7 15 3.5 5.4 9.9 12.9 17.6 20.6 8.1 8.1 15.5 14.3 22.6 19 5.8 3.9 15.2 9.3 21 12.2 5.8 2.8 15.9 6.9 22.5 9.1l12 4.1h124.5c-6.1-8.9-9.7-15.8-11.9-21-2.2-5.2-5.1-13.8-6.5-19-1.4-5.2-3.3-14.2-4.1-20-0.8-5.8-1.7-15.2-1.8-21-0.2-5.8 0-15.7 0.5-22 0.4-6.3 1.9-16 3.2-21.5 1.4-5.5 3.6-13.1 5.1-17 1.4-3.9 4-9.7 5.8-13 1.7-3.3 5.4-9.4 8.3-13.5 2.8-4.1 9.1-11.3 14-15.9 4.9-4.6 12-10.5 15.9-13.1 3.9-2.6 10.7-6.6 15.2-8.9 4.6-2.2 11.1-5.2 14.5-6.5 3.5-1.3 11.5-3.7 17.8-5.4 6.3-1.7 16.2-3.8 22-4.6 5.8-0.9 12.7-1.6 15.5-1.6h5c2.7-23.6 4.4-35 5.6-40.5 1.2-5.5 3.7-14.5 5.6-20 1.9-5.5 5.3-13.5 7.4-17.8 2.1-4.2 5.6-10.3 7.6-13.4 2-3.2 6-8.7 8.9-12.3 2.9-3.6 8.3-9.5 12.1-13.1 3.7-3.7 9.7-8.8 13.3-11.5 3.6-2.7 10.1-7 14.5-9.6 4.4-2.6 14.1-7.6 21.5-11.2 7.4-3.6 18.9-8.3 25.5-10.5 6.6-2.2 16.7-5 22.5-6.3 8.8-1.9 13.6-2.2 29.5-2.3 14.9 0 20.8 0.4 27.5 1.9 4.7 1 13 3.4 18.5 5.3 5.5 1.9 13.6 5.3 18 7.5 4.4 2.2 11.1 6.1 15 8.6 3.9 2.4 9.9 6.8 13.5 9.6 3.6 2.8 8.1 6.4 10 8.1 1.9 1.6 6.3 5.7 9.8 9 3.6 3.3 10.8 10.9 16.1 16.8 5.3 5.9 9.9 10.8 10.3 10.7 0.5 0 4.5-1.7 9-3.9 4.6-2.1 12.3-5.2 17.3-6.9 5-1.7 13.5-4 19-5.1 5.5-1.1 15.2-2.7 21.5-2.5 9.2 0.2 10.9 0.8 12.4-0.5 0.8-0.7 0.7-13.2 0.4-25.1-0.4-16.1-1.1-24.2-2.7-32-1.1-5.8-3.5-14.8-5.2-20-1.7-5.2-5.2-14-7.8-19.5-2.6-5.5-6.9-13.4-9.6-17.5-2.6-4.1-8.2-11.7-12.4-16.9-4.2-5.2-12-13.5-17.4-18.5-5.4-5-15.5-13.4-22.5-18.7-7-5.2-17.7-12.4-23.7-16-6-3.6-14.8-8.4-19.5-10.6-4.7-2.2-10.1-4.7-12-5.6-1.9-0.8-8-3.1-13.5-5-5.5-1.9-15.2-4.6-21.5-6-6.3-1.4-16.2-3.1-22-3.7-5.8-0.5-15.2-0.9-21-0.8-5.8 0-12.1 0.3-14 0.5z"/>
	<path id="Preencher com Cor Sólida 1" fill-rule="evenodd" class="s0" d="m556 171c-5.8 1-14.5 3.1-19.5 4.5-5 1.4-13 4.2-18 6.2-5 2-14.4 6.3-21 9.6-6.6 3.3-15.6 8.2-20 11-4.4 2.7-10 6.5-12.5 8.5-2.5 2-7.6 6.5-11.3 10.1-3.8 3.6-9.2 9.5-12.1 13.1-2.9 3.6-6.9 9.1-8.9 12.3-2 3.1-5.5 9.2-7.6 13.4-2.1 4.3-5.5 12.3-7.4 17.8-1.9 5.5-4.4 14.5-5.6 20-1.2 5.5-2.9 16.9-3.9 25.3l-1.7 15.2c-7.8 0-14.7 0.7-20.5 1.6-5.8 0.8-15.7 2.9-22 4.6-6.3 1.7-14.3 4.1-17.8 5.4-3.4 1.3-9.9 4.3-14.4 6.5-4.6 2.3-11.4 6.3-15.3 8.9-3.9 2.6-11 8.5-15.9 13.1-4.9 4.6-11.2 11.8-14 15.9-2.9 4.1-6.6 10.2-8.3 13.5-1.8 3.3-4.4 9.1-5.8 13-1.5 3.9-3.7 11.5-5.1 17-1.3 5.5-2.8 15.2-3.2 21.5-0.5 6.3-0.7 16.2-0.5 22 0.1 5.8 1 15.2 1.8 21 0.8 5.8 2.7 14.8 4.1 20 1.4 5.2 4.3 13.8 6.5 19 2.2 5.2 6.6 13.3 9.7 18 3.1 4.7 8.8 11.7 12.7 15.6 3.8 4 10.6 9.6 15 12.6 4.4 3.1 11.6 7.2 16 9.3 4.4 2 12.9 5.1 19 6.9l11 3.1c518 0.5 586.3 0.3 590.5-0.6 3-0.7 8.9-2.6 13-4.2 4.1-1.7 10.2-4.6 13.5-6.6 3.3-1.9 8.5-5.2 11.5-7.4 3-2.2 8.4-6.5 11.9-9.6 3.5-3.1 9.1-9 12.4-13.1 3.3-4.1 7.8-10.6 10-14.5 2.2-3.9 5.1-9.6 6.4-12.8 1.3-3.1 3.4-9.4 4.7-14 1.3-4.5 2.9-12 3.5-16.7 0.6-4.7 1.3-12.1 1.5-16.5 0.2-4.4-0.2-12.5-0.9-18-0.7-5.5-2.2-13.4-3.3-17.5-1.2-4.1-3.8-10.9-5.8-15-2-4.1-5.7-10.4-8.3-14-2.5-3.6-7.7-9.6-11.6-13.5-3.9-3.9-10.7-9.4-15-12.3-4.4-3-12.3-7.5-17.5-10-5.2-2.5-13.8-5.9-19.1-7.6-5.3-1.7-9.9-3.3-10.3-3.6-0.3-0.3-1.1-5.4-1.7-11.5-0.5-6.1-1.9-15.3-2.9-20.5-1-5.2-3.3-13.3-5-18-1.7-4.7-5.2-12.5-7.8-17.4-2.6-4.8-7.1-12-10.1-16-2.9-3.9-9.7-11.5-15-16.9-5.3-5.3-14.8-13.6-21.1-18.3-6.3-4.7-14.9-10.6-19-13.3-4.1-2.6-11.1-6.1-15.5-7.8-4.4-1.7-12.7-4.2-18.5-5.7-5.8-1.4-15.5-3.2-21.5-4-6.5-0.8-15.7-1.2-22.5-1-6.3 0.3-16 1.4-21.5 2.5-5.5 1.1-14 3.4-19 5.1-5 1.7-12.7 4.8-17.2 6.9-4.6 2.2-8.6 3.9-9 3.9-0.5 0.1-5.1-4.8-10.4-10.7-5.3-5.9-12.5-13.5-16.1-16.8-3.5-3.3-7.9-7.4-9.8-9-1.9-1.7-6.4-5.3-10-8.1-3.6-2.8-9.6-7.2-13.5-9.6-3.9-2.5-10.6-6.4-15-8.6-4.4-2.2-12-5.4-17-7.2-5-1.7-12.8-4.1-17.5-5.1-6.2-1.5-13.3-2.1-26-2.4-14.3-0.4-19.4-0.1-28 1.5z"/>
</svg>